<mxfile host="app.diagrams.net" modified="2023-11-23T14:09:15.892Z" agent="Mozilla/5.0 (Windows NT 10.0; Win64; x64) AppleWebKit/537.36 (KHTML, like Gecko) Chrome/119.0.0.0 Safari/537.36 Edg/119.0.0.0" etag="LSvQzX7j1TlLhd6F4x17" version="22.1.3" type="github">
  <diagram id="C5RBs43oDa-KdzZeNtuy" name="Page-1">
    <mxGraphModel dx="891" dy="628" grid="1" gridSize="10" guides="1" tooltips="1" connect="1" arrows="1" fold="1" page="1" pageScale="1" pageWidth="827" pageHeight="1169" math="0" shadow="0">
      <root>
        <mxCell id="WIyWlLk6GJQsqaUBKTNV-0" />
        <mxCell id="WIyWlLk6GJQsqaUBKTNV-1" parent="WIyWlLk6GJQsqaUBKTNV-0" />
        <mxCell id="BujpaoAsENS_1RQgkWy6-5" value="" style="edgeStyle=orthogonalEdgeStyle;rounded=0;orthogonalLoop=1;jettySize=auto;html=1;" parent="WIyWlLk6GJQsqaUBKTNV-1" source="BujpaoAsENS_1RQgkWy6-0" target="BujpaoAsENS_1RQgkWy6-4" edge="1">
          <mxGeometry relative="1" as="geometry" />
        </mxCell>
        <mxCell id="BujpaoAsENS_1RQgkWy6-0" value="用戶輸入" style="shape=parallelogram;perimeter=parallelogramPerimeter;whiteSpace=wrap;html=1;fixedSize=1;" parent="WIyWlLk6GJQsqaUBKTNV-1" vertex="1">
          <mxGeometry x="40" y="120" width="120" height="40" as="geometry" />
        </mxCell>
        <mxCell id="BujpaoAsENS_1RQgkWy6-2" style="edgeStyle=orthogonalEdgeStyle;rounded=0;orthogonalLoop=1;jettySize=auto;html=1;entryX=0.5;entryY=0;entryDx=0;entryDy=0;" parent="WIyWlLk6GJQsqaUBKTNV-1" source="BujpaoAsENS_1RQgkWy6-1" target="BujpaoAsENS_1RQgkWy6-0" edge="1">
          <mxGeometry relative="1" as="geometry" />
        </mxCell>
        <mxCell id="BujpaoAsENS_1RQgkWy6-1" value="永恆while迴圈" style="rounded=0;whiteSpace=wrap;html=1;" parent="WIyWlLk6GJQsqaUBKTNV-1" vertex="1">
          <mxGeometry x="40" y="40" width="120" height="40" as="geometry" />
        </mxCell>
        <mxCell id="BujpaoAsENS_1RQgkWy6-7" value="" style="edgeStyle=orthogonalEdgeStyle;rounded=0;orthogonalLoop=1;jettySize=auto;html=1;" parent="WIyWlLk6GJQsqaUBKTNV-1" source="BujpaoAsENS_1RQgkWy6-4" target="BujpaoAsENS_1RQgkWy6-6" edge="1">
          <mxGeometry relative="1" as="geometry" />
        </mxCell>
        <mxCell id="BujpaoAsENS_1RQgkWy6-4" value="初始化winsock2" style="whiteSpace=wrap;html=1;" parent="WIyWlLk6GJQsqaUBKTNV-1" vertex="1">
          <mxGeometry x="40" y="200" width="120" height="40" as="geometry" />
        </mxCell>
        <mxCell id="BujpaoAsENS_1RQgkWy6-9" value="" style="edgeStyle=orthogonalEdgeStyle;rounded=0;orthogonalLoop=1;jettySize=auto;html=1;" parent="WIyWlLk6GJQsqaUBKTNV-1" source="BujpaoAsENS_1RQgkWy6-6" target="BujpaoAsENS_1RQgkWy6-8" edge="1">
          <mxGeometry relative="1" as="geometry" />
        </mxCell>
        <mxCell id="BujpaoAsENS_1RQgkWy6-6" value="用戶輸入之xxx.xxx.xxx.xxx由十進制轉二進制" style="whiteSpace=wrap;html=1;" parent="WIyWlLk6GJQsqaUBKTNV-1" vertex="1">
          <mxGeometry x="40" y="280" width="240" height="40" as="geometry" />
        </mxCell>
        <mxCell id="BujpaoAsENS_1RQgkWy6-11" value="" style="edgeStyle=orthogonalEdgeStyle;rounded=0;orthogonalLoop=1;jettySize=auto;html=1;" parent="WIyWlLk6GJQsqaUBKTNV-1" source="BujpaoAsENS_1RQgkWy6-8" edge="1">
          <mxGeometry relative="1" as="geometry">
            <mxPoint x="280" y="400" as="targetPoint" />
          </mxGeometry>
        </mxCell>
        <mxCell id="BujpaoAsENS_1RQgkWy6-15" value="Y" style="edgeLabel;html=1;align=center;verticalAlign=middle;resizable=0;points=[];" parent="BujpaoAsENS_1RQgkWy6-11" vertex="1" connectable="0">
          <mxGeometry x="-0.6167" y="-3" relative="1" as="geometry">
            <mxPoint x="12" y="-3" as="offset" />
          </mxGeometry>
        </mxCell>
        <mxCell id="BujpaoAsENS_1RQgkWy6-14" value="" style="edgeStyle=orthogonalEdgeStyle;rounded=0;orthogonalLoop=1;jettySize=auto;html=1;" parent="WIyWlLk6GJQsqaUBKTNV-1" source="BujpaoAsENS_1RQgkWy6-8" target="BujpaoAsENS_1RQgkWy6-13" edge="1">
          <mxGeometry relative="1" as="geometry" />
        </mxCell>
        <mxCell id="BujpaoAsENS_1RQgkWy6-17" value="N" style="edgeLabel;html=1;align=center;verticalAlign=middle;resizable=0;points=[];" parent="BujpaoAsENS_1RQgkWy6-14" vertex="1" connectable="0">
          <mxGeometry x="-0.4833" y="-3" relative="1" as="geometry">
            <mxPoint x="3" y="10" as="offset" />
          </mxGeometry>
        </mxCell>
        <mxCell id="BujpaoAsENS_1RQgkWy6-8" value="EH :域名解析錯誤&lt;br&gt;使用域名解析" style="rhombus;whiteSpace=wrap;html=1;" parent="WIyWlLk6GJQsqaUBKTNV-1" vertex="1">
          <mxGeometry x="80" y="360" width="160" height="80" as="geometry" />
        </mxCell>
        <mxCell id="BujpaoAsENS_1RQgkWy6-22" value="" style="edgeStyle=orthogonalEdgeStyle;rounded=0;orthogonalLoop=1;jettySize=auto;html=1;" parent="WIyWlLk6GJQsqaUBKTNV-1" source="BujpaoAsENS_1RQgkWy6-13" target="BujpaoAsENS_1RQgkWy6-21" edge="1">
          <mxGeometry relative="1" as="geometry" />
        </mxCell>
        <mxCell id="BujpaoAsENS_1RQgkWy6-13" value="創建sockaddr_in結構&lt;br&gt;填充AF_INET和IP" style="whiteSpace=wrap;html=1;" parent="WIyWlLk6GJQsqaUBKTNV-1" vertex="1">
          <mxGeometry x="80" y="480" width="160" height="40" as="geometry" />
        </mxCell>
        <mxCell id="BujpaoAsENS_1RQgkWy6-25" value="" style="edgeStyle=orthogonalEdgeStyle;rounded=0;orthogonalLoop=1;jettySize=auto;html=1;" parent="WIyWlLk6GJQsqaUBKTNV-1" source="BujpaoAsENS_1RQgkWy6-21" target="BujpaoAsENS_1RQgkWy6-24" edge="1">
          <mxGeometry relative="1" as="geometry" />
        </mxCell>
        <mxCell id="BujpaoAsENS_1RQgkWy6-21" value="創建Raw類型的Socket&lt;br&gt;設置Socket的超時" style="whiteSpace=wrap;html=1;" parent="WIyWlLk6GJQsqaUBKTNV-1" vertex="1">
          <mxGeometry x="80" y="560" width="160" height="40" as="geometry" />
        </mxCell>
        <mxCell id="BujpaoAsENS_1RQgkWy6-27" value="" style="edgeStyle=orthogonalEdgeStyle;rounded=0;orthogonalLoop=1;jettySize=auto;html=1;" parent="WIyWlLk6GJQsqaUBKTNV-1" source="BujpaoAsENS_1RQgkWy6-24" edge="1">
          <mxGeometry relative="1" as="geometry">
            <mxPoint x="280" y="661" as="targetPoint" />
          </mxGeometry>
        </mxCell>
        <mxCell id="BujpaoAsENS_1RQgkWy6-29" value="Y" style="edgeLabel;html=1;align=center;verticalAlign=middle;resizable=0;points=[];" parent="BujpaoAsENS_1RQgkWy6-27" vertex="1" connectable="0">
          <mxGeometry x="-0.5667" y="1" relative="1" as="geometry">
            <mxPoint x="11" y="1" as="offset" />
          </mxGeometry>
        </mxCell>
        <mxCell id="BujpaoAsENS_1RQgkWy6-31" value="N" style="edgeStyle=orthogonalEdgeStyle;rounded=0;orthogonalLoop=1;jettySize=auto;html=1;" parent="WIyWlLk6GJQsqaUBKTNV-1" source="BujpaoAsENS_1RQgkWy6-24" target="BujpaoAsENS_1RQgkWy6-30" edge="1">
          <mxGeometry relative="1" as="geometry" />
        </mxCell>
        <mxCell id="BujpaoAsENS_1RQgkWy6-24" value="EH : 設置超時錯誤" style="rhombus;whiteSpace=wrap;html=1;" parent="WIyWlLk6GJQsqaUBKTNV-1" vertex="1">
          <mxGeometry x="80" y="640" width="160" height="40" as="geometry" />
        </mxCell>
        <mxCell id="BujpaoAsENS_1RQgkWy6-33" value="" style="edgeStyle=orthogonalEdgeStyle;rounded=0;orthogonalLoop=1;jettySize=auto;html=1;" parent="WIyWlLk6GJQsqaUBKTNV-1" source="BujpaoAsENS_1RQgkWy6-30" target="BujpaoAsENS_1RQgkWy6-32" edge="1">
          <mxGeometry relative="1" as="geometry" />
        </mxCell>
        <mxCell id="BujpaoAsENS_1RQgkWy6-30" value="設置傳輸ICMP包的buffer&lt;br&gt;設置接收ICMP包的buffer" style="whiteSpace=wrap;html=1;" parent="WIyWlLk6GJQsqaUBKTNV-1" vertex="1">
          <mxGeometry x="80" y="720" width="160" height="40" as="geometry" />
        </mxCell>
        <mxCell id="BujpaoAsENS_1RQgkWy6-35" value="" style="edgeStyle=orthogonalEdgeStyle;rounded=0;orthogonalLoop=1;jettySize=auto;html=1;" parent="WIyWlLk6GJQsqaUBKTNV-1" source="BujpaoAsENS_1RQgkWy6-32" target="BujpaoAsENS_1RQgkWy6-34" edge="1">
          <mxGeometry relative="1" as="geometry" />
        </mxCell>
        <mxCell id="BujpaoAsENS_1RQgkWy6-32" value="創建ICMP結構&lt;br&gt;填充type、code、id&lt;br&gt;填充數據段&#39;E&#39;" style="whiteSpace=wrap;html=1;" parent="WIyWlLk6GJQsqaUBKTNV-1" vertex="1">
          <mxGeometry x="80" y="790" width="160" height="50" as="geometry" />
        </mxCell>
        <mxCell id="BujpaoAsENS_1RQgkWy6-39" value="" style="edgeStyle=orthogonalEdgeStyle;rounded=0;orthogonalLoop=1;jettySize=auto;html=1;" parent="WIyWlLk6GJQsqaUBKTNV-1" source="BujpaoAsENS_1RQgkWy6-34" target="BujpaoAsENS_1RQgkWy6-38" edge="1">
          <mxGeometry relative="1" as="geometry" />
        </mxCell>
        <mxCell id="BujpaoAsENS_1RQgkWy6-34" value="創建儲存解碼結果的對象&lt;br&gt;設定傳輸停止的Flag、序列號、TTL、最大跳站數" style="whiteSpace=wrap;html=1;" parent="WIyWlLk6GJQsqaUBKTNV-1" vertex="1">
          <mxGeometry x="70" y="880" width="180" height="80" as="geometry" />
        </mxCell>
        <mxCell id="BujpaoAsENS_1RQgkWy6-41" value="" style="edgeStyle=orthogonalEdgeStyle;rounded=0;orthogonalLoop=1;jettySize=auto;html=1;" parent="WIyWlLk6GJQsqaUBKTNV-1" source="BujpaoAsENS_1RQgkWy6-38" target="BujpaoAsENS_1RQgkWy6-40" edge="1">
          <mxGeometry relative="1" as="geometry">
            <Array as="points">
              <mxPoint x="160" y="1120" />
              <mxPoint x="160" y="1120" />
            </Array>
          </mxGeometry>
        </mxCell>
        <mxCell id="BujpaoAsENS_1RQgkWy6-50" value="N" style="edgeLabel;html=1;align=center;verticalAlign=middle;resizable=0;points=[];" parent="BujpaoAsENS_1RQgkWy6-41" vertex="1" connectable="0">
          <mxGeometry x="0.2978" y="3" relative="1" as="geometry">
            <mxPoint x="-3" y="-6" as="offset" />
          </mxGeometry>
        </mxCell>
        <mxCell id="BujpaoAsENS_1RQgkWy6-38" value="while Loop&lt;br&gt;傳輸停止Flag為True&lt;br style=&quot;border-color: var(--border-color);&quot;&gt;或&lt;br style=&quot;border-color: var(--border-color);&quot;&gt;跳站數使用完" style="whiteSpace=wrap;html=1;" parent="WIyWlLk6GJQsqaUBKTNV-1" vertex="1">
          <mxGeometry x="100" y="1000" width="120" height="80" as="geometry" />
        </mxCell>
        <mxCell id="BujpaoAsENS_1RQgkWy6-52" value="" style="edgeStyle=orthogonalEdgeStyle;rounded=0;orthogonalLoop=1;jettySize=auto;html=1;" parent="WIyWlLk6GJQsqaUBKTNV-1" source="BujpaoAsENS_1RQgkWy6-40" target="BujpaoAsENS_1RQgkWy6-51" edge="1">
          <mxGeometry relative="1" as="geometry" />
        </mxCell>
        <mxCell id="BujpaoAsENS_1RQgkWy6-40" value="設置sockRaw的TTL&lt;br&gt;設置ICMP傳輸緩衝區的cksum和序列號&lt;br&gt;在解碼結果結構中儲存當前序列號和時間" style="whiteSpace=wrap;html=1;" parent="WIyWlLk6GJQsqaUBKTNV-1" vertex="1">
          <mxGeometry x="40" y="1120" width="240" height="50" as="geometry" />
        </mxCell>
        <mxCell id="BujpaoAsENS_1RQgkWy6-45" style="edgeStyle=orthogonalEdgeStyle;rounded=0;orthogonalLoop=1;jettySize=auto;html=1;endArrow=classic;endFill=1;spacing=0;spacingRight=3;entryX=1;entryY=0.5;entryDx=0;entryDy=0;exitX=1;exitY=0.5;exitDx=0;exitDy=0;" parent="WIyWlLk6GJQsqaUBKTNV-1" source="BujpaoAsENS_1RQgkWy6-38" target="BujpaoAsENS_1RQgkWy6-1" edge="1">
          <mxGeometry relative="1" as="geometry">
            <mxPoint x="440" y="60" as="targetPoint" />
            <mxPoint x="380" y="1040" as="sourcePoint" />
            <Array as="points">
              <mxPoint x="440" y="1040" />
              <mxPoint x="440" y="60" />
            </Array>
          </mxGeometry>
        </mxCell>
        <mxCell id="BujpaoAsENS_1RQgkWy6-90" value="Y" style="edgeLabel;html=1;align=center;verticalAlign=middle;resizable=0;points=[];" parent="BujpaoAsENS_1RQgkWy6-45" vertex="1" connectable="0">
          <mxGeometry x="-0.95" y="-2" relative="1" as="geometry">
            <mxPoint x="-27" y="-2" as="offset" />
          </mxGeometry>
        </mxCell>
        <mxCell id="BujpaoAsENS_1RQgkWy6-54" value="" style="edgeStyle=orthogonalEdgeStyle;rounded=0;orthogonalLoop=1;jettySize=auto;html=1;" parent="WIyWlLk6GJQsqaUBKTNV-1" source="BujpaoAsENS_1RQgkWy6-51" target="BujpaoAsENS_1RQgkWy6-53" edge="1">
          <mxGeometry relative="1" as="geometry" />
        </mxCell>
        <mxCell id="BujpaoAsENS_1RQgkWy6-51" value="使用sockRaw傳輸ICMP傳輸緩衝區" style="whiteSpace=wrap;html=1;" parent="WIyWlLk6GJQsqaUBKTNV-1" vertex="1">
          <mxGeometry x="100" y="1200" width="120" height="40" as="geometry" />
        </mxCell>
        <mxCell id="BujpaoAsENS_1RQgkWy6-59" value="Y" style="edgeStyle=orthogonalEdgeStyle;rounded=0;orthogonalLoop=1;jettySize=auto;html=1;entryX=0;entryY=0.5;entryDx=0;entryDy=0;" parent="WIyWlLk6GJQsqaUBKTNV-1" source="BujpaoAsENS_1RQgkWy6-53" target="BujpaoAsENS_1RQgkWy6-76" edge="1">
          <mxGeometry relative="1" as="geometry">
            <mxPoint x="320" y="1300" as="targetPoint" />
          </mxGeometry>
        </mxCell>
        <mxCell id="BujpaoAsENS_1RQgkWy6-63" value="" style="edgeStyle=orthogonalEdgeStyle;rounded=0;orthogonalLoop=1;jettySize=auto;html=1;" parent="WIyWlLk6GJQsqaUBKTNV-1" source="BujpaoAsENS_1RQgkWy6-53" target="BujpaoAsENS_1RQgkWy6-62" edge="1">
          <mxGeometry relative="1" as="geometry" />
        </mxCell>
        <mxCell id="BujpaoAsENS_1RQgkWy6-88" value="N" style="edgeLabel;html=1;align=center;verticalAlign=middle;resizable=0;points=[];" parent="BujpaoAsENS_1RQgkWy6-63" vertex="1" connectable="0">
          <mxGeometry x="-0.26" y="1" relative="1" as="geometry">
            <mxPoint as="offset" />
          </mxGeometry>
        </mxCell>
        <mxCell id="BujpaoAsENS_1RQgkWy6-53" value="EH : 目的地不可達錯誤" style="rhombus;whiteSpace=wrap;html=1;" parent="WIyWlLk6GJQsqaUBKTNV-1" vertex="1">
          <mxGeometry x="40" y="1280" width="240" height="40" as="geometry" />
        </mxCell>
        <mxCell id="BujpaoAsENS_1RQgkWy6-65" value="" style="edgeStyle=orthogonalEdgeStyle;rounded=0;orthogonalLoop=1;jettySize=auto;html=1;" parent="WIyWlLk6GJQsqaUBKTNV-1" source="BujpaoAsENS_1RQgkWy6-62" target="BujpaoAsENS_1RQgkWy6-64" edge="1">
          <mxGeometry relative="1" as="geometry" />
        </mxCell>
        <mxCell id="BujpaoAsENS_1RQgkWy6-62" value="永恆while Loop&lt;br&gt;專門等待數據包到來" style="whiteSpace=wrap;html=1;" parent="WIyWlLk6GJQsqaUBKTNV-1" vertex="1">
          <mxGeometry x="100" y="1360" width="120" height="40" as="geometry" />
        </mxCell>
        <mxCell id="BujpaoAsENS_1RQgkWy6-68" value="" style="edgeStyle=orthogonalEdgeStyle;rounded=0;orthogonalLoop=1;jettySize=auto;html=1;" parent="WIyWlLk6GJQsqaUBKTNV-1" source="BujpaoAsENS_1RQgkWy6-64" target="BujpaoAsENS_1RQgkWy6-67" edge="1">
          <mxGeometry relative="1" as="geometry" />
        </mxCell>
        <mxCell id="BujpaoAsENS_1RQgkWy6-64" value="阻塞於sockRaw接收數據" style="whiteSpace=wrap;html=1;" parent="WIyWlLk6GJQsqaUBKTNV-1" vertex="1">
          <mxGeometry x="80" y="1440" width="160" height="40" as="geometry" />
        </mxCell>
        <mxCell id="BujpaoAsENS_1RQgkWy6-70" value="" style="edgeStyle=orthogonalEdgeStyle;rounded=0;orthogonalLoop=1;jettySize=auto;html=1;" parent="WIyWlLk6GJQsqaUBKTNV-1" source="BujpaoAsENS_1RQgkWy6-67" target="BujpaoAsENS_1RQgkWy6-69" edge="1">
          <mxGeometry relative="1" as="geometry" />
        </mxCell>
        <mxCell id="BujpaoAsENS_1RQgkWy6-85" value="N" style="edgeLabel;html=1;align=center;verticalAlign=middle;resizable=0;points=[];" parent="BujpaoAsENS_1RQgkWy6-70" vertex="1" connectable="0">
          <mxGeometry x="-0.45" y="3" relative="1" as="geometry">
            <mxPoint x="9" y="3" as="offset" />
          </mxGeometry>
        </mxCell>
        <mxCell id="BujpaoAsENS_1RQgkWy6-93" value="" style="edgeStyle=orthogonalEdgeStyle;rounded=0;orthogonalLoop=1;jettySize=auto;html=1;entryX=0.5;entryY=0;entryDx=0;entryDy=0;" parent="WIyWlLk6GJQsqaUBKTNV-1" source="BujpaoAsENS_1RQgkWy6-67" target="BujpaoAsENS_1RQgkWy6-94" edge="1">
          <mxGeometry relative="1" as="geometry">
            <mxPoint x="160" y="1600" as="targetPoint" />
          </mxGeometry>
        </mxCell>
        <mxCell id="BujpaoAsENS_1RQgkWy6-67" value="EH : 接收錯誤" style="rhombus;whiteSpace=wrap;html=1;" parent="WIyWlLk6GJQsqaUBKTNV-1" vertex="1">
          <mxGeometry x="80" y="1520" width="160" height="40" as="geometry" />
        </mxCell>
        <mxCell id="BujpaoAsENS_1RQgkWy6-72" value="" style="edgeStyle=orthogonalEdgeStyle;rounded=0;orthogonalLoop=1;jettySize=auto;html=1;" parent="WIyWlLk6GJQsqaUBKTNV-1" source="BujpaoAsENS_1RQgkWy6-69" target="BujpaoAsENS_1RQgkWy6-71" edge="1">
          <mxGeometry relative="1" as="geometry">
            <Array as="points">
              <mxPoint x="460" y="1540" />
              <mxPoint x="460" y="1540" />
            </Array>
          </mxGeometry>
        </mxCell>
        <mxCell id="BujpaoAsENS_1RQgkWy6-87" value="N" style="edgeLabel;html=1;align=center;verticalAlign=middle;resizable=0;points=[];" parent="BujpaoAsENS_1RQgkWy6-72" vertex="1" connectable="0">
          <mxGeometry x="-0.45" y="-3" relative="1" as="geometry">
            <mxPoint y="-3" as="offset" />
          </mxGeometry>
        </mxCell>
        <mxCell id="BujpaoAsENS_1RQgkWy6-82" value="" style="edgeStyle=orthogonalEdgeStyle;rounded=0;orthogonalLoop=1;jettySize=auto;html=1;" parent="WIyWlLk6GJQsqaUBKTNV-1" source="BujpaoAsENS_1RQgkWy6-69" target="BujpaoAsENS_1RQgkWy6-81" edge="1">
          <mxGeometry relative="1" as="geometry" />
        </mxCell>
        <mxCell id="BujpaoAsENS_1RQgkWy6-86" value="Y" style="edgeLabel;html=1;align=center;verticalAlign=middle;resizable=0;points=[];" parent="BujpaoAsENS_1RQgkWy6-82" vertex="1" connectable="0">
          <mxGeometry x="-0.35" y="-3" relative="1" as="geometry">
            <mxPoint x="3" y="7" as="offset" />
          </mxGeometry>
        </mxCell>
        <mxCell id="BujpaoAsENS_1RQgkWy6-69" value="EH : 超時錯誤" style="rhombus;whiteSpace=wrap;html=1;" parent="WIyWlLk6GJQsqaUBKTNV-1" vertex="1">
          <mxGeometry x="280" y="1520" width="160" height="40" as="geometry" />
        </mxCell>
        <mxCell id="BujpaoAsENS_1RQgkWy6-78" value="" style="edgeStyle=orthogonalEdgeStyle;rounded=0;orthogonalLoop=1;jettySize=auto;html=1;entryX=0.5;entryY=0;entryDx=0;entryDy=0;" parent="WIyWlLk6GJQsqaUBKTNV-1" source="BujpaoAsENS_1RQgkWy6-71" target="BujpaoAsENS_1RQgkWy6-80" edge="1">
          <mxGeometry relative="1" as="geometry">
            <mxPoint x="560" y="1620" as="targetPoint" />
          </mxGeometry>
        </mxCell>
        <mxCell id="BujpaoAsENS_1RQgkWy6-91" value="Y" style="edgeLabel;html=1;align=center;verticalAlign=middle;resizable=0;points=[];" parent="BujpaoAsENS_1RQgkWy6-78" vertex="1" connectable="0">
          <mxGeometry x="-0.39" y="-2" relative="1" as="geometry">
            <mxPoint as="offset" />
          </mxGeometry>
        </mxCell>
        <mxCell id="BujpaoAsENS_1RQgkWy6-71" value="EH : 其他錯誤" style="rhombus;whiteSpace=wrap;html=1;" parent="WIyWlLk6GJQsqaUBKTNV-1" vertex="1">
          <mxGeometry x="480" y="1520" width="160" height="40" as="geometry" />
        </mxCell>
        <mxCell id="BujpaoAsENS_1RQgkWy6-74" value="無法處理用戶輸入。&lt;br style=&quot;border-color: var(--border-color);&quot;&gt;處理後結束程序" style="ellipse;whiteSpace=wrap;html=1;" parent="WIyWlLk6GJQsqaUBKTNV-1" vertex="1">
          <mxGeometry x="280" y="370" width="120" height="70" as="geometry" />
        </mxCell>
        <mxCell id="BujpaoAsENS_1RQgkWy6-75" value="&lt;span style=&quot;color: rgb(0, 0, 0); font-family: Helvetica; font-size: 12px; font-style: normal; font-variant-ligatures: normal; font-variant-caps: normal; font-weight: 400; letter-spacing: normal; orphans: 2; text-align: center; text-indent: 0px; text-transform: none; widows: 2; word-spacing: 0px; -webkit-text-stroke-width: 0px; background-color: rgb(251, 251, 251); text-decoration-thickness: initial; text-decoration-style: initial; text-decoration-color: initial; float: none; display: inline !important;&quot;&gt;設置錯誤。&lt;/span&gt;&lt;br style=&quot;border-color: var(--border-color); color: rgb(0, 0, 0); font-family: Helvetica; font-size: 12px; font-style: normal; font-variant-ligatures: normal; font-variant-caps: normal; font-weight: 400; letter-spacing: normal; orphans: 2; text-align: center; text-indent: 0px; text-transform: none; widows: 2; word-spacing: 0px; -webkit-text-stroke-width: 0px; background-color: rgb(251, 251, 251); text-decoration-thickness: initial; text-decoration-style: initial; text-decoration-color: initial;&quot;&gt;&lt;span style=&quot;color: rgb(0, 0, 0); font-family: Helvetica; font-size: 12px; font-style: normal; font-variant-ligatures: normal; font-variant-caps: normal; font-weight: 400; letter-spacing: normal; orphans: 2; text-align: center; text-indent: 0px; text-transform: none; widows: 2; word-spacing: 0px; -webkit-text-stroke-width: 0px; background-color: rgb(251, 251, 251); text-decoration-thickness: initial; text-decoration-style: initial; text-decoration-color: initial; float: none; display: inline !important;&quot;&gt;處理後結束程序&lt;/span&gt;" style="ellipse;whiteSpace=wrap;html=1;" parent="WIyWlLk6GJQsqaUBKTNV-1" vertex="1">
          <mxGeometry x="280" y="640" width="120" height="40" as="geometry" />
        </mxCell>
        <mxCell id="BujpaoAsENS_1RQgkWy6-76" value="目的地不可達。&lt;br&gt;處理後結束程序" style="ellipse;whiteSpace=wrap;html=1;" parent="WIyWlLk6GJQsqaUBKTNV-1" vertex="1">
          <mxGeometry x="320" y="1280" width="120" height="40" as="geometry" />
        </mxCell>
        <mxCell id="BujpaoAsENS_1RQgkWy6-80" value="錯誤於recvfrom函數。&lt;br style=&quot;border-color: var(--border-color);&quot;&gt;處理後結束程序" style="ellipse;whiteSpace=wrap;html=1;" parent="WIyWlLk6GJQsqaUBKTNV-1" vertex="1">
          <mxGeometry x="480" y="1600" width="160" height="40" as="geometry" />
        </mxCell>
        <mxCell id="BujpaoAsENS_1RQgkWy6-83" style="edgeStyle=orthogonalEdgeStyle;rounded=0;orthogonalLoop=1;jettySize=auto;html=1;entryX=1;entryY=1;entryDx=0;entryDy=0;" parent="WIyWlLk6GJQsqaUBKTNV-1" source="BujpaoAsENS_1RQgkWy6-81" target="BujpaoAsENS_1RQgkWy6-38" edge="1">
          <mxGeometry relative="1" as="geometry">
            <mxPoint x="220" y="1100" as="targetPoint" />
            <Array as="points">
              <mxPoint x="461" y="1620" />
              <mxPoint x="461" y="1100" />
              <mxPoint x="220" y="1100" />
            </Array>
          </mxGeometry>
        </mxCell>
        <mxCell id="BujpaoAsENS_1RQgkWy6-81" value="輸出信息&lt;br&gt;增加TTL" style="whiteSpace=wrap;html=1;" parent="WIyWlLk6GJQsqaUBKTNV-1" vertex="1">
          <mxGeometry x="300" y="1600" width="120" height="40" as="geometry" />
        </mxCell>
        <mxCell id="BujpaoAsENS_1RQgkWy6-97" value="" style="edgeStyle=orthogonalEdgeStyle;rounded=0;orthogonalLoop=1;jettySize=auto;html=1;" parent="WIyWlLk6GJQsqaUBKTNV-1" source="BujpaoAsENS_1RQgkWy6-94" target="BujpaoAsENS_1RQgkWy6-96" edge="1">
          <mxGeometry relative="1" as="geometry" />
        </mxCell>
        <mxCell id="BujpaoAsENS_1RQgkWy6-94" value="進入解碼函數" style="rounded=0;whiteSpace=wrap;html=1;" parent="WIyWlLk6GJQsqaUBKTNV-1" vertex="1">
          <mxGeometry x="100" y="1600" width="120" height="40" as="geometry" />
        </mxCell>
        <mxCell id="BujpaoAsENS_1RQgkWy6-99" value="" style="edgeStyle=orthogonalEdgeStyle;rounded=0;orthogonalLoop=1;jettySize=auto;html=1;entryX=1;entryY=0.5;entryDx=0;entryDy=0;" parent="WIyWlLk6GJQsqaUBKTNV-1" source="BujpaoAsENS_1RQgkWy6-96" target="BujpaoAsENS_1RQgkWy6-62" edge="1">
          <mxGeometry relative="1" as="geometry">
            <mxPoint x="230" y="1380" as="targetPoint" />
            <Array as="points">
              <mxPoint x="290" y="1700" />
              <mxPoint x="290" y="1380" />
            </Array>
          </mxGeometry>
        </mxCell>
        <mxCell id="BujpaoAsENS_1RQgkWy6-118" value="Y" style="edgeLabel;html=1;align=center;verticalAlign=middle;resizable=0;points=[];" parent="BujpaoAsENS_1RQgkWy6-99" vertex="1" connectable="0">
          <mxGeometry x="-0.9333" y="-4" relative="1" as="geometry">
            <mxPoint y="-4" as="offset" />
          </mxGeometry>
        </mxCell>
        <mxCell id="BujpaoAsENS_1RQgkWy6-105" value="" style="edgeStyle=orthogonalEdgeStyle;rounded=0;orthogonalLoop=1;jettySize=auto;html=1;" parent="WIyWlLk6GJQsqaUBKTNV-1" source="BujpaoAsENS_1RQgkWy6-96" target="BujpaoAsENS_1RQgkWy6-104" edge="1">
          <mxGeometry relative="1" as="geometry" />
        </mxCell>
        <mxCell id="BujpaoAsENS_1RQgkWy6-106" value="N" style="edgeLabel;html=1;align=center;verticalAlign=middle;resizable=0;points=[];" parent="BujpaoAsENS_1RQgkWy6-105" vertex="1" connectable="0">
          <mxGeometry x="-0.35" y="3" relative="1" as="geometry">
            <mxPoint as="offset" />
          </mxGeometry>
        </mxCell>
        <mxCell id="BujpaoAsENS_1RQgkWy6-96" value="EH : 數據包大小過小" style="rhombus;whiteSpace=wrap;html=1;rounded=0;" parent="WIyWlLk6GJQsqaUBKTNV-1" vertex="1">
          <mxGeometry x="80" y="1680" width="160" height="40" as="geometry" />
        </mxCell>
        <mxCell id="BujpaoAsENS_1RQgkWy6-108" value="" style="edgeStyle=orthogonalEdgeStyle;rounded=0;orthogonalLoop=1;jettySize=auto;html=1;" parent="WIyWlLk6GJQsqaUBKTNV-1" source="BujpaoAsENS_1RQgkWy6-104" target="BujpaoAsENS_1RQgkWy6-107" edge="1">
          <mxGeometry relative="1" as="geometry" />
        </mxCell>
        <mxCell id="BujpaoAsENS_1RQgkWy6-113" value="Y" style="edgeLabel;html=1;align=center;verticalAlign=middle;resizable=0;points=[];" parent="BujpaoAsENS_1RQgkWy6-108" vertex="1" connectable="0">
          <mxGeometry x="-0.2" y="-1" relative="1" as="geometry">
            <mxPoint as="offset" />
          </mxGeometry>
        </mxCell>
        <mxCell id="BujpaoAsENS_1RQgkWy6-110" value="" style="edgeStyle=orthogonalEdgeStyle;rounded=0;orthogonalLoop=1;jettySize=auto;html=1;" parent="WIyWlLk6GJQsqaUBKTNV-1" source="BujpaoAsENS_1RQgkWy6-104" target="BujpaoAsENS_1RQgkWy6-109" edge="1">
          <mxGeometry relative="1" as="geometry" />
        </mxCell>
        <mxCell id="BujpaoAsENS_1RQgkWy6-115" value="N" style="edgeLabel;html=1;align=center;verticalAlign=middle;resizable=0;points=[];" parent="BujpaoAsENS_1RQgkWy6-110" vertex="1" connectable="0">
          <mxGeometry x="0.1" y="-3" relative="1" as="geometry">
            <mxPoint as="offset" />
          </mxGeometry>
        </mxCell>
        <mxCell id="BujpaoAsENS_1RQgkWy6-104" value="type為ICMP_ECHO_REPLY" style="rhombus;whiteSpace=wrap;html=1;rounded=0;" parent="WIyWlLk6GJQsqaUBKTNV-1" vertex="1">
          <mxGeometry x="40" y="1760" width="240" height="40" as="geometry" />
        </mxCell>
        <mxCell id="BujpaoAsENS_1RQgkWy6-121" style="edgeStyle=orthogonalEdgeStyle;rounded=0;orthogonalLoop=1;jettySize=auto;html=1;endArrow=none;endFill=0;" parent="WIyWlLk6GJQsqaUBKTNV-1" source="BujpaoAsENS_1RQgkWy6-107" edge="1">
          <mxGeometry relative="1" as="geometry">
            <mxPoint x="480" y="1860" as="targetPoint" />
          </mxGeometry>
        </mxCell>
        <mxCell id="BujpaoAsENS_1RQgkWy6-107" value="儲存ID 和序列號" style="whiteSpace=wrap;html=1;rounded=0;" parent="WIyWlLk6GJQsqaUBKTNV-1" vertex="1">
          <mxGeometry x="320" y="1760" width="120" height="40" as="geometry" />
        </mxCell>
        <mxCell id="BujpaoAsENS_1RQgkWy6-112" value="" style="edgeStyle=orthogonalEdgeStyle;rounded=0;orthogonalLoop=1;jettySize=auto;html=1;" parent="WIyWlLk6GJQsqaUBKTNV-1" source="BujpaoAsENS_1RQgkWy6-109" target="BujpaoAsENS_1RQgkWy6-111" edge="1">
          <mxGeometry relative="1" as="geometry" />
        </mxCell>
        <mxCell id="BujpaoAsENS_1RQgkWy6-114" value="Y" style="edgeLabel;html=1;align=center;verticalAlign=middle;resizable=0;points=[];" parent="BujpaoAsENS_1RQgkWy6-112" vertex="1" connectable="0">
          <mxGeometry x="-0.25" y="1" relative="1" as="geometry">
            <mxPoint as="offset" />
          </mxGeometry>
        </mxCell>
        <mxCell id="BujpaoAsENS_1RQgkWy6-116" style="edgeStyle=orthogonalEdgeStyle;rounded=0;orthogonalLoop=1;jettySize=auto;html=1;endArrow=classic;endFill=1;" parent="WIyWlLk6GJQsqaUBKTNV-1" source="BujpaoAsENS_1RQgkWy6-109" edge="1">
          <mxGeometry relative="1" as="geometry">
            <mxPoint x="290" y="1700" as="targetPoint" />
            <Array as="points">
              <mxPoint x="160" y="1920" />
              <mxPoint x="290" y="1920" />
              <mxPoint x="290" y="1700" />
            </Array>
          </mxGeometry>
        </mxCell>
        <mxCell id="BujpaoAsENS_1RQgkWy6-120" value="N" style="edgeLabel;html=1;align=center;verticalAlign=middle;resizable=0;points=[];" parent="BujpaoAsENS_1RQgkWy6-116" vertex="1" connectable="0">
          <mxGeometry x="-0.9105" y="1" relative="1" as="geometry">
            <mxPoint as="offset" />
          </mxGeometry>
        </mxCell>
        <mxCell id="BujpaoAsENS_1RQgkWy6-109" value="type為ICMP_ECHO_TIMEOUT" style="rhombus;whiteSpace=wrap;html=1;rounded=0;" parent="WIyWlLk6GJQsqaUBKTNV-1" vertex="1">
          <mxGeometry x="40" y="1840" width="240" height="40" as="geometry" />
        </mxCell>
        <mxCell id="BujpaoAsENS_1RQgkWy6-122" style="edgeStyle=orthogonalEdgeStyle;rounded=0;orthogonalLoop=1;jettySize=auto;html=1;" parent="WIyWlLk6GJQsqaUBKTNV-1" source="BujpaoAsENS_1RQgkWy6-111" edge="1">
          <mxGeometry relative="1" as="geometry">
            <mxPoint x="480" y="1920" as="targetPoint" />
            <Array as="points">
              <mxPoint x="481" y="1860" />
            </Array>
          </mxGeometry>
        </mxCell>
        <mxCell id="BujpaoAsENS_1RQgkWy6-111" value="儲存ID 和序列號" style="whiteSpace=wrap;html=1;rounded=0;" parent="WIyWlLk6GJQsqaUBKTNV-1" vertex="1">
          <mxGeometry x="320" y="1840" width="120" height="40" as="geometry" />
        </mxCell>
        <mxCell id="BujpaoAsENS_1RQgkWy6-125" style="edgeStyle=orthogonalEdgeStyle;rounded=0;orthogonalLoop=1;jettySize=auto;html=1;endArrow=classic;endFill=1;startArrow=none;startFill=0;" parent="WIyWlLk6GJQsqaUBKTNV-1" source="BujpaoAsENS_1RQgkWy6-124" edge="1">
          <mxGeometry relative="1" as="geometry">
            <mxPoint x="290" y="1920" as="targetPoint" />
            <Array as="points">
              <mxPoint x="290" y="1940" />
              <mxPoint x="290" y="1920" />
            </Array>
          </mxGeometry>
        </mxCell>
        <mxCell id="BujpaoAsENS_1RQgkWy6-126" value="Y" style="edgeLabel;html=1;align=center;verticalAlign=middle;resizable=0;points=[];" parent="BujpaoAsENS_1RQgkWy6-125" vertex="1" connectable="0">
          <mxGeometry x="-0.7125" y="3" relative="1" as="geometry">
            <mxPoint x="3" y="-3" as="offset" />
          </mxGeometry>
        </mxCell>
        <mxCell id="BujpaoAsENS_1RQgkWy6-128" value="" style="edgeStyle=orthogonalEdgeStyle;rounded=0;orthogonalLoop=1;jettySize=auto;html=1;" parent="WIyWlLk6GJQsqaUBKTNV-1" source="BujpaoAsENS_1RQgkWy6-124" target="BujpaoAsENS_1RQgkWy6-127" edge="1">
          <mxGeometry relative="1" as="geometry" />
        </mxCell>
        <mxCell id="BujpaoAsENS_1RQgkWy6-131" value="N" style="edgeLabel;html=1;align=center;verticalAlign=middle;resizable=0;points=[];" parent="BujpaoAsENS_1RQgkWy6-128" vertex="1" connectable="0">
          <mxGeometry x="-0.3333" y="-2" relative="1" as="geometry">
            <mxPoint as="offset" />
          </mxGeometry>
        </mxCell>
        <mxCell id="BujpaoAsENS_1RQgkWy6-124" value="EH : 序列號錯誤" style="rhombus;whiteSpace=wrap;html=1;" parent="WIyWlLk6GJQsqaUBKTNV-1" vertex="1">
          <mxGeometry x="420" y="1920" width="120" height="40" as="geometry" />
        </mxCell>
        <mxCell id="BujpaoAsENS_1RQgkWy6-130" value="" style="edgeStyle=orthogonalEdgeStyle;rounded=0;orthogonalLoop=1;jettySize=auto;html=1;" parent="WIyWlLk6GJQsqaUBKTNV-1" source="BujpaoAsENS_1RQgkWy6-127" target="BujpaoAsENS_1RQgkWy6-129" edge="1">
          <mxGeometry relative="1" as="geometry" />
        </mxCell>
        <mxCell id="BujpaoAsENS_1RQgkWy6-127" value="儲存IP、往返時間在解碼結構中&lt;br&gt;輸出用時信息" style="whiteSpace=wrap;html=1;" parent="WIyWlLk6GJQsqaUBKTNV-1" vertex="1">
          <mxGeometry x="380" y="2000" width="200" height="40" as="geometry" />
        </mxCell>
        <mxCell id="BujpaoAsENS_1RQgkWy6-133" style="edgeStyle=orthogonalEdgeStyle;rounded=0;orthogonalLoop=1;jettySize=auto;html=1;endArrow=classic;endFill=1;" parent="WIyWlLk6GJQsqaUBKTNV-1" source="BujpaoAsENS_1RQgkWy6-129" edge="1">
          <mxGeometry relative="1" as="geometry">
            <mxPoint x="290" y="1940" as="targetPoint" />
            <Array as="points">
              <mxPoint x="290" y="2100" />
              <mxPoint x="290" y="1940" />
            </Array>
          </mxGeometry>
        </mxCell>
        <mxCell id="BujpaoAsENS_1RQgkWy6-134" value="Y" style="edgeLabel;html=1;align=center;verticalAlign=middle;resizable=0;points=[];" parent="BujpaoAsENS_1RQgkWy6-133" vertex="1" connectable="0">
          <mxGeometry x="-0.8637" y="-1" relative="1" as="geometry">
            <mxPoint as="offset" />
          </mxGeometry>
        </mxCell>
        <mxCell id="BujpaoAsENS_1RQgkWy6-136" value="" style="edgeStyle=orthogonalEdgeStyle;rounded=0;orthogonalLoop=1;jettySize=auto;html=1;" parent="WIyWlLk6GJQsqaUBKTNV-1" source="BujpaoAsENS_1RQgkWy6-129" target="BujpaoAsENS_1RQgkWy6-135" edge="1">
          <mxGeometry relative="1" as="geometry" />
        </mxCell>
        <mxCell id="BujpaoAsENS_1RQgkWy6-137" value="N" style="edgeLabel;html=1;align=center;verticalAlign=middle;resizable=0;points=[];" parent="BujpaoAsENS_1RQgkWy6-136" vertex="1" connectable="0">
          <mxGeometry x="-0.4033" y="-1" relative="1" as="geometry">
            <mxPoint as="offset" />
          </mxGeometry>
        </mxCell>
        <mxCell id="BujpaoAsENS_1RQgkWy6-129" value="EH : 原IP和接收IP不同錯誤" style="rhombus;whiteSpace=wrap;html=1;" parent="WIyWlLk6GJQsqaUBKTNV-1" vertex="1">
          <mxGeometry x="370" y="2080" width="220" height="40" as="geometry" />
        </mxCell>
        <mxCell id="BujpaoAsENS_1RQgkWy6-140" style="edgeStyle=orthogonalEdgeStyle;rounded=0;orthogonalLoop=1;jettySize=auto;html=1;exitX=1;exitY=0.5;exitDx=0;exitDy=0;" parent="WIyWlLk6GJQsqaUBKTNV-1" source="BujpaoAsENS_1RQgkWy6-135" edge="1">
          <mxGeometry relative="1" as="geometry">
            <mxPoint x="440" y="60" as="targetPoint" />
            <mxPoint x="570" y="2185" as="sourcePoint" />
            <Array as="points">
              <mxPoint x="651" y="2185" />
              <mxPoint x="651" y="60" />
            </Array>
          </mxGeometry>
        </mxCell>
        <mxCell id="BujpaoAsENS_1RQgkWy6-135" value="設置傳輸停止Flag為True&lt;br&gt;結束sockRaw&lt;br&gt;中止WSA" style="whiteSpace=wrap;html=1;" parent="WIyWlLk6GJQsqaUBKTNV-1" vertex="1">
          <mxGeometry x="400" y="2160" width="160" height="50" as="geometry" />
        </mxCell>
      </root>
    </mxGraphModel>
  </diagram>
</mxfile>
